<?xml version="1.0" encoding="iso-8859-1"?>
<!-- Generator: Adobe Illustrator 19.0.0, SVG Export Plug-In . SVG Version: 6.00 Build 0)  -->
<svg version="1.1" id="Capa_1" xmlns="http://www.w3.org/2000/svg" xmlns:xlink="http://www.w3.org/1999/xlink" x="0px" y="0px"
	 viewBox="0 0 512 512" style="enable-background:new 0 0 512 512;" xml:space="preserve">
<g>
	<g>
		<path d="M80.648,73.146h-3.257c-4.143,0-7.5,3.357-7.5,7.5s3.357,7.5,7.5,7.5h3.257c4.143,0,7.5-3.357,7.5-7.5
			S84.791,73.146,80.648,73.146z"/>
	</g>
</g>
<g>
	<g>
		<path d="M509.804,291.026l-0.973-0.973c-3.126-3.125-4.848-7.281-4.848-11.701v-37.007c0-13.259-6.586-25.565-17.618-32.92
			l-7.09-4.726c-4.35-40.588-29.836-64.759-57.189-84.768c-14.133-10.338-23.367-20.868-31.514-30.159
			c-12.107-13.806-22.563-25.729-41.719-25.729c-16.407,0-22.371,10.479-26.726,18.131c-4.36,7.664-7.229,12.737-18.952,12.598
			c-8.155-0.088-11.607-5.258-17.008-14.389c-6.012-10.162-14.247-24.081-34.939-18.044c-17.256,5.032-26.912,30.21-38.094,59.363
			c-7.52,19.604-15.294,39.873-25.215,52.831c-3.432,4.481-15.871,19.104-31.872,19.104h-4.258
			c-13.545,0-24.564-11.02-24.564-24.564V82.238l13.334-11.112c2.897-2.415,3.551-6.606,1.525-9.788
			c-0.132-0.206-10.837-16.515-31.28-12.992H81.59c-8.426,0-16.349,3.281-22.309,9.24l-7.288,7.289l-25.632,4.271
			C11.087,71.693,0,84.78,0,100.266v3.677c0,8.556,6.961,15.516,15.517,15.516h55.961v61.969c0,24.423,12.293,48.432,33.728,65.868
			c22.316,18.155,53.028,28.161,86.477,28.176c0.347,0,0.705,0.187,0.705,0.498v149.328c-8.87,1.141-16.416,7.242-19.301,15.897
			l-4.362,13.086c-0.763,2.287-0.379,4.802,1.031,6.758c1.409,1.955,3.673,3.114,6.084,3.114h48.097c3.935,0,7.2-3.041,7.481-6.966
			l9.041-126.583c13.185,40.499,20.244,78.695,22.894,94.876c-8.354,1.509-15.364,7.446-18.121,15.715l-4.362,13.086
			c-0.763,2.287-0.379,4.802,1.031,6.758c1.409,1.955,3.673,3.114,6.084,3.114h48.098c2.096,0,4.096-0.877,5.516-2.418
			c1.42-1.542,2.131-3.606,1.959-5.695l-8.017-97.697c-0.035-0.437-0.109-0.869-0.221-1.293l-18.792-71.503
			c19.853-1.856,38.831-5.376,56.716-10.553c3.979-1.151,6.271-5.311,5.119-9.289c-1.151-3.979-5.312-6.272-9.289-5.119
			c-25.903,7.496-54.274,11.355-84.435,11.503l1.458-20.409c0.296-4.132-2.814-7.72-6.946-8.015
			c-4.119-0.317-7.721,2.814-8.015,6.946l-14.182,198.543h-30.707l1.071-3.215c1.163-3.489,4.415-5.834,8.094-5.834h4.477
			c4.143,0,7.5-3.357,7.5-7.5V275.969c0-8.542-7.042-15.494-15.699-15.498c-65.856-0.028-105.21-40.212-105.21-79.044v-69.469
			c0-4.143-3.357-7.5-7.5-7.5H15.517c-0.285,0-0.517-0.231-0.517-0.516v-3.677c0-8.123,5.815-14.987,13.828-16.322l28.002-4.667
			c1.542-0.258,2.965-0.99,4.07-2.096l8.987-8.988c3.126-3.125,7.282-4.847,11.702-4.847h9.584c0.176,0.586,0.418,1.161,0.748,1.709
			c2.135,3.55,6.743,4.695,10.293,2.563c10.766-6.473,18.006-5.155,22.334-2.675L108.41,78.39c-3.182,2.652-3.611,7.381-0.96,10.563
			c1.254,1.504,2.975,2.386,4.774,2.625v76.492c0,21.816,17.749,39.564,39.564,39.564h4.258c22.25,0,38.03-17.473,43.782-24.984
			c11.239-14.68,19.409-35.979,27.31-56.578c8.519-22.211,18.175-47.386,28.288-50.335c9.059-2.639,11.652,0.836,17.829,11.28
			c5.384,9.102,12.757,21.566,29.757,21.752c20.503,0.232,27.252-11.569,32.151-20.179c4.271-7.504,6.299-10.55,13.688-10.55
			c11.834,0,18.229,6.693,30.44,20.619c8.229,9.384,18.47,21.063,33.937,32.377c25.016,18.299,51.705,41.478,51.705,85.13v86.485
			c0,7.835,2.298,15.424,6.645,21.946l9.235,13.853l-7.381,110.7h-30.674l1.071-3.214c1.163-3.49,4.416-5.835,8.095-5.835h4.477
			c4.143,0,7.5-3.357,7.5-7.5v-72.146c0-1.255-0.314-2.489-0.916-3.592l-40.505-74.258c-4.701-8.621-8.165-17.85-10.294-27.431
			l-9.67-43.517c-0.898-4.043-4.898-6.595-8.948-5.694c-4.043,0.898-6.593,4.904-5.694,8.948l3.644,16.398
			c-4.669,3.519-15.203,10.737-31.642,18.075c-3.782,1.688-5.48,6.123-3.792,9.905c1.245,2.79,3.983,4.445,6.853,4.445
			c1.021,0,2.06-0.21,3.053-0.653c1.388-0.619,2.73-1.238,4.042-1.854c8.404,19.794,24.182,61.923,22.774,82.688
			c-2.122,31.292-16.37,68.531-21.549,81.19c-9.937,0.211-18.664,6.621-21.818,16.085l-4.362,13.086
			c-0.763,2.287-0.379,4.802,1.031,6.757c1.409,1.956,3.673,3.115,6.084,3.115h40.081c3.027,0,5.759-1.82,6.923-4.615l40.08-96.194
			c0.422-1.012,0.616-2.103,0.57-3.197l-0.783-15.814l9.839,18.038v62.927c-8.869,1.141-16.416,7.242-19.302,15.897l-4.362,13.086
			c-0.763,2.287-0.379,4.802,1.031,6.758c1.409,1.955,3.673,3.114,6.084,3.114h48.097c3.948,0,7.221-3.062,7.483-7.001
			l8.017-120.242c0.109-1.647-0.327-3.285-1.243-4.659l-10.646-15.97c-2.699-4.05-4.126-8.762-4.126-13.627V222.31
			c5.699,4.641,9.048,11.59,9.048,19.03v37.007c0,8.427,3.281,16.35,9.24,22.309l0.973,0.973c1.465,1.464,3.385,2.196,5.304,2.196
			c1.919,0,3.839-0.732,5.304-2.196C512.732,298.703,512.732,293.955,509.804,291.026z M243.566,287.089
			c5.977-0.009,11.892-0.159,17.738-0.45l19.34,73.586l7.297,88.928H258.39l1.071-3.214c1.163-3.49,4.416-5.835,8.095-5.835h4.477
			c2.162,0,4.22-0.934,5.644-2.561c1.425-1.628,2.077-3.791,1.79-5.935c-0.393-2.937-9.912-72.538-36.389-137.684L243.566,287.089z
			 M387.274,449.153H362.6l1.071-3.215c1.163-3.489,4.415-5.834,8.094-5.834h4.478c2.968,0,5.656-1.75,6.857-4.464
			c0.894-2.017,21.904-49.867,24.673-90.707c0.9-13.271-3.279-33.339-12.422-59.646c-4.686-13.483-9.438-25.028-11.952-30.928
			c4.676-2.628,8.557-5.067,11.653-7.152l2.494,11.225c2.434,10.953,6.394,21.504,11.769,31.359l13.631,24.99l1.846,44.328
			L387.274,449.153z"/>
	</g>
</g>
<g>
</g>
<g>
</g>
<g>
</g>
<g>
</g>
<g>
</g>
<g>
</g>
<g>
</g>
<g>
</g>
<g>
</g>
<g>
</g>
<g>
</g>
<g>
</g>
<g>
</g>
<g>
</g>
<g>
</g>
</svg>
